<?xml version="1.0" encoding="utf-8" standalone="no"?>
<!DOCTYPE svg PUBLIC "-//W3C//DTD SVG 1.1//EN"
  "http://www.w3.org/Graphics/SVG/1.1/DTD/svg11.dtd">
<svg xmlns:xlink="http://www.w3.org/1999/xlink" width="720pt" height="576pt" viewBox="0 0 720 576" xmlns="http://www.w3.org/2000/svg" version="1.1">
 <metadata>
  <rdf:RDF xmlns:dc="http://purl.org/dc/elements/1.1/" xmlns:cc="http://creativecommons.org/ns#" xmlns:rdf="http://www.w3.org/1999/02/22-rdf-syntax-ns#">
   <cc:Work>
    <dc:type rdf:resource="http://purl.org/dc/dcmitype/StillImage"/>
    <dc:date>2025-06-20T15:00:44.039715</dc:date>
    <dc:format>image/svg+xml</dc:format>
    <dc:creator>
     <cc:Agent>
      <dc:title>Matplotlib v3.6.1, https://matplotlib.org/</dc:title>
     </cc:Agent>
    </dc:creator>
   </cc:Work>
  </rdf:RDF>
 </metadata>
 <defs>
  <style type="text/css">*{stroke-linejoin: round; stroke-linecap: butt}</style>
 </defs>
 <g id="figure_1">
  <g id="patch_1">
   <path d="M 0 576 
L 720 576 
L 720 0 
L 0 0 
z
" style="fill: #ffffff"/>
  </g>
  <g id="axes_1">
   <g id="patch_2">
    <path d="M 90 512.64 
L 648 512.64 
L 648 69.12 
L 90 69.12 
z
" style="fill: #ffffff"/>
   </g>
   <g id="matplotlib.axis_1">
    <g id="xtick_1">
     <g id="line2d_1">
      <defs>
       <path id="md81bf8e192" d="M 0 0 
L 0 3.5 
" style="stroke: #000000; stroke-width: 1.5"/>
      </defs>
      <g>
       <use xlink:href="#md81bf8e192" x="115.363636" y="512.64" style="stroke: #000000; stroke-width: 1.5"/>
      </g>
     </g>
     <g id="text_1">
      <!-- 0 -->
      <g transform="translate(109.001136 534.836875) scale(0.2 -0.2)">
       <defs>
        <path id="DejaVuSans-30" d="M 2034 4250 
Q 1547 4250 1301 3770 
Q 1056 3291 1056 2328 
Q 1056 1369 1301 889 
Q 1547 409 2034 409 
Q 2525 409 2770 889 
Q 3016 1369 3016 2328 
Q 3016 3291 2770 3770 
Q 2525 4250 2034 4250 
z
M 2034 4750 
Q 2819 4750 3233 4129 
Q 3647 3509 3647 2328 
Q 3647 1150 3233 529 
Q 2819 -91 2034 -91 
Q 1250 -91 836 529 
Q 422 1150 422 2328 
Q 422 3509 836 4129 
Q 1250 4750 2034 4750 
z
" transform="scale(0.015625)"/>
       </defs>
       <use xlink:href="#DejaVuSans-30"/>
      </g>
     </g>
    </g>
    <g id="xtick_2">
     <g id="line2d_2">
      <g>
       <use xlink:href="#md81bf8e192" x="218.888683" y="512.64" style="stroke: #000000; stroke-width: 1.5"/>
      </g>
     </g>
     <g id="text_2">
      <!-- 10 -->
      <g transform="translate(206.163683 534.836875) scale(0.2 -0.2)">
       <defs>
        <path id="DejaVuSans-31" d="M 794 531 
L 1825 531 
L 1825 4091 
L 703 3866 
L 703 4441 
L 1819 4666 
L 2450 4666 
L 2450 531 
L 3481 531 
L 3481 0 
L 794 0 
L 794 531 
z
" transform="scale(0.015625)"/>
       </defs>
       <use xlink:href="#DejaVuSans-31"/>
       <use xlink:href="#DejaVuSans-30" x="63.623047"/>
      </g>
     </g>
    </g>
    <g id="xtick_3">
     <g id="line2d_3">
      <g>
       <use xlink:href="#md81bf8e192" x="322.413729" y="512.64" style="stroke: #000000; stroke-width: 1.5"/>
      </g>
     </g>
     <g id="text_3">
      <!-- 20 -->
      <g transform="translate(309.688729 534.836875) scale(0.2 -0.2)">
       <defs>
        <path id="DejaVuSans-32" d="M 1228 531 
L 3431 531 
L 3431 0 
L 469 0 
L 469 531 
Q 828 903 1448 1529 
Q 2069 2156 2228 2338 
Q 2531 2678 2651 2914 
Q 2772 3150 2772 3378 
Q 2772 3750 2511 3984 
Q 2250 4219 1831 4219 
Q 1534 4219 1204 4116 
Q 875 4013 500 3803 
L 500 4441 
Q 881 4594 1212 4672 
Q 1544 4750 1819 4750 
Q 2544 4750 2975 4387 
Q 3406 4025 3406 3419 
Q 3406 3131 3298 2873 
Q 3191 2616 2906 2266 
Q 2828 2175 2409 1742 
Q 1991 1309 1228 531 
z
" transform="scale(0.015625)"/>
       </defs>
       <use xlink:href="#DejaVuSans-32"/>
       <use xlink:href="#DejaVuSans-30" x="63.623047"/>
      </g>
     </g>
    </g>
    <g id="xtick_4">
     <g id="line2d_4">
      <g>
       <use xlink:href="#md81bf8e192" x="425.938776" y="512.64" style="stroke: #000000; stroke-width: 1.5"/>
      </g>
     </g>
     <g id="text_4">
      <!-- 30 -->
      <g transform="translate(413.213776 534.836875) scale(0.2 -0.2)">
       <defs>
        <path id="DejaVuSans-33" d="M 2597 2516 
Q 3050 2419 3304 2112 
Q 3559 1806 3559 1356 
Q 3559 666 3084 287 
Q 2609 -91 1734 -91 
Q 1441 -91 1130 -33 
Q 819 25 488 141 
L 488 750 
Q 750 597 1062 519 
Q 1375 441 1716 441 
Q 2309 441 2620 675 
Q 2931 909 2931 1356 
Q 2931 1769 2642 2001 
Q 2353 2234 1838 2234 
L 1294 2234 
L 1294 2753 
L 1863 2753 
Q 2328 2753 2575 2939 
Q 2822 3125 2822 3475 
Q 2822 3834 2567 4026 
Q 2313 4219 1838 4219 
Q 1578 4219 1281 4162 
Q 984 4106 628 3988 
L 628 4550 
Q 988 4650 1302 4700 
Q 1616 4750 1894 4750 
Q 2613 4750 3031 4423 
Q 3450 4097 3450 3541 
Q 3450 3153 3228 2886 
Q 3006 2619 2597 2516 
z
" transform="scale(0.015625)"/>
       </defs>
       <use xlink:href="#DejaVuSans-33"/>
       <use xlink:href="#DejaVuSans-30" x="63.623047"/>
      </g>
     </g>
    </g>
    <g id="xtick_5">
     <g id="line2d_5">
      <g>
       <use xlink:href="#md81bf8e192" x="529.463822" y="512.64" style="stroke: #000000; stroke-width: 1.5"/>
      </g>
     </g>
     <g id="text_5">
      <!-- 40 -->
      <g transform="translate(516.738822 534.836875) scale(0.2 -0.2)">
       <defs>
        <path id="DejaVuSans-34" d="M 2419 4116 
L 825 1625 
L 2419 1625 
L 2419 4116 
z
M 2253 4666 
L 3047 4666 
L 3047 1625 
L 3713 1625 
L 3713 1100 
L 3047 1100 
L 3047 0 
L 2419 0 
L 2419 1100 
L 313 1100 
L 313 1709 
L 2253 4666 
z
" transform="scale(0.015625)"/>
       </defs>
       <use xlink:href="#DejaVuSans-34"/>
       <use xlink:href="#DejaVuSans-30" x="63.623047"/>
      </g>
     </g>
    </g>
    <g id="xtick_6">
     <g id="line2d_6">
      <g>
       <use xlink:href="#md81bf8e192" x="632.988868" y="512.64" style="stroke: #000000; stroke-width: 1.5"/>
      </g>
     </g>
     <g id="text_6">
      <!-- 50 -->
      <g transform="translate(620.263868 534.836875) scale(0.2 -0.2)">
       <defs>
        <path id="DejaVuSans-35" d="M 691 4666 
L 3169 4666 
L 3169 4134 
L 1269 4134 
L 1269 2991 
Q 1406 3038 1543 3061 
Q 1681 3084 1819 3084 
Q 2600 3084 3056 2656 
Q 3513 2228 3513 1497 
Q 3513 744 3044 326 
Q 2575 -91 1722 -91 
Q 1428 -91 1123 -41 
Q 819 9 494 109 
L 494 744 
Q 775 591 1075 516 
Q 1375 441 1709 441 
Q 2250 441 2565 725 
Q 2881 1009 2881 1497 
Q 2881 1984 2565 2268 
Q 2250 2553 1709 2553 
Q 1456 2553 1204 2497 
Q 953 2441 691 2322 
L 691 4666 
z
" transform="scale(0.015625)"/>
       </defs>
       <use xlink:href="#DejaVuSans-35"/>
       <use xlink:href="#DejaVuSans-30" x="63.623047"/>
      </g>
     </g>
    </g>
    <g id="text_7">
     <!-- t -->
     <g transform="translate(364.099609 561.992344) scale(0.25 -0.25)">
      <defs>
       <path id="DejaVuSans-74" d="M 1172 4494 
L 1172 3500 
L 2356 3500 
L 2356 3053 
L 1172 3053 
L 1172 1153 
Q 1172 725 1289 603 
Q 1406 481 1766 481 
L 2356 481 
L 2356 0 
L 1766 0 
Q 1100 0 847 248 
Q 594 497 594 1153 
L 594 3053 
L 172 3053 
L 172 3500 
L 594 3500 
L 594 4494 
L 1172 4494 
z
" transform="scale(0.015625)"/>
      </defs>
      <use xlink:href="#DejaVuSans-74"/>
     </g>
    </g>
   </g>
   <g id="matplotlib.axis_2">
    <g id="ytick_1">
     <g id="line2d_7">
      <defs>
       <path id="m6565d58b5d" d="M 0 0 
L -3.5 0 
" style="stroke: #000000; stroke-width: 1.5"/>
      </defs>
      <g>
       <use xlink:href="#m6565d58b5d" x="90" y="492.48" style="stroke: #000000; stroke-width: 1.5"/>
      </g>
     </g>
     <g id="text_8">
      <!-- 0.0 -->
      <g transform="translate(51.19375 500.078438) scale(0.2 -0.2)">
       <defs>
        <path id="DejaVuSans-2e" d="M 684 794 
L 1344 794 
L 1344 0 
L 684 0 
L 684 794 
z
" transform="scale(0.015625)"/>
       </defs>
       <use xlink:href="#DejaVuSans-30"/>
       <use xlink:href="#DejaVuSans-2e" x="63.623047"/>
       <use xlink:href="#DejaVuSans-30" x="95.410156"/>
      </g>
     </g>
    </g>
    <g id="ytick_2">
     <g id="line2d_8">
      <g>
       <use xlink:href="#m6565d58b5d" x="90" y="411.84" style="stroke: #000000; stroke-width: 1.5"/>
      </g>
     </g>
     <g id="text_9">
      <!-- 0.2 -->
      <g transform="translate(51.19375 419.438437) scale(0.2 -0.2)">
       <use xlink:href="#DejaVuSans-30"/>
       <use xlink:href="#DejaVuSans-2e" x="63.623047"/>
       <use xlink:href="#DejaVuSans-32" x="95.410156"/>
      </g>
     </g>
    </g>
    <g id="ytick_3">
     <g id="line2d_9">
      <g>
       <use xlink:href="#m6565d58b5d" x="90" y="331.2" style="stroke: #000000; stroke-width: 1.5"/>
      </g>
     </g>
     <g id="text_10">
      <!-- 0.4 -->
      <g transform="translate(51.19375 338.798437) scale(0.2 -0.2)">
       <use xlink:href="#DejaVuSans-30"/>
       <use xlink:href="#DejaVuSans-2e" x="63.623047"/>
       <use xlink:href="#DejaVuSans-34" x="95.410156"/>
      </g>
     </g>
    </g>
    <g id="ytick_4">
     <g id="line2d_10">
      <g>
       <use xlink:href="#m6565d58b5d" x="90" y="250.56" style="stroke: #000000; stroke-width: 1.5"/>
      </g>
     </g>
     <g id="text_11">
      <!-- 0.6 -->
      <g transform="translate(51.19375 258.158437) scale(0.2 -0.2)">
       <defs>
        <path id="DejaVuSans-36" d="M 2113 2584 
Q 1688 2584 1439 2293 
Q 1191 2003 1191 1497 
Q 1191 994 1439 701 
Q 1688 409 2113 409 
Q 2538 409 2786 701 
Q 3034 994 3034 1497 
Q 3034 2003 2786 2293 
Q 2538 2584 2113 2584 
z
M 3366 4563 
L 3366 3988 
Q 3128 4100 2886 4159 
Q 2644 4219 2406 4219 
Q 1781 4219 1451 3797 
Q 1122 3375 1075 2522 
Q 1259 2794 1537 2939 
Q 1816 3084 2150 3084 
Q 2853 3084 3261 2657 
Q 3669 2231 3669 1497 
Q 3669 778 3244 343 
Q 2819 -91 2113 -91 
Q 1303 -91 875 529 
Q 447 1150 447 2328 
Q 447 3434 972 4092 
Q 1497 4750 2381 4750 
Q 2619 4750 2861 4703 
Q 3103 4656 3366 4563 
z
" transform="scale(0.015625)"/>
       </defs>
       <use xlink:href="#DejaVuSans-30"/>
       <use xlink:href="#DejaVuSans-2e" x="63.623047"/>
       <use xlink:href="#DejaVuSans-36" x="95.410156"/>
      </g>
     </g>
    </g>
    <g id="ytick_5">
     <g id="line2d_11">
      <g>
       <use xlink:href="#m6565d58b5d" x="90" y="169.92" style="stroke: #000000; stroke-width: 1.5"/>
      </g>
     </g>
     <g id="text_12">
      <!-- 0.8 -->
      <g transform="translate(51.19375 177.518438) scale(0.2 -0.2)">
       <defs>
        <path id="DejaVuSans-38" d="M 2034 2216 
Q 1584 2216 1326 1975 
Q 1069 1734 1069 1313 
Q 1069 891 1326 650 
Q 1584 409 2034 409 
Q 2484 409 2743 651 
Q 3003 894 3003 1313 
Q 3003 1734 2745 1975 
Q 2488 2216 2034 2216 
z
M 1403 2484 
Q 997 2584 770 2862 
Q 544 3141 544 3541 
Q 544 4100 942 4425 
Q 1341 4750 2034 4750 
Q 2731 4750 3128 4425 
Q 3525 4100 3525 3541 
Q 3525 3141 3298 2862 
Q 3072 2584 2669 2484 
Q 3125 2378 3379 2068 
Q 3634 1759 3634 1313 
Q 3634 634 3220 271 
Q 2806 -91 2034 -91 
Q 1263 -91 848 271 
Q 434 634 434 1313 
Q 434 1759 690 2068 
Q 947 2378 1403 2484 
z
M 1172 3481 
Q 1172 3119 1398 2916 
Q 1625 2713 2034 2713 
Q 2441 2713 2670 2916 
Q 2900 3119 2900 3481 
Q 2900 3844 2670 4047 
Q 2441 4250 2034 4250 
Q 1625 4250 1398 4047 
Q 1172 3844 1172 3481 
z
" transform="scale(0.015625)"/>
       </defs>
       <use xlink:href="#DejaVuSans-30"/>
       <use xlink:href="#DejaVuSans-2e" x="63.623047"/>
       <use xlink:href="#DejaVuSans-38" x="95.410156"/>
      </g>
     </g>
    </g>
    <g id="ytick_6">
     <g id="line2d_12">
      <g>
       <use xlink:href="#m6565d58b5d" x="90" y="89.28" style="stroke: #000000; stroke-width: 1.5"/>
      </g>
     </g>
     <g id="text_13">
      <!-- 1.0 -->
      <g transform="translate(51.19375 96.878437) scale(0.2 -0.2)">
       <use xlink:href="#DejaVuSans-31"/>
       <use xlink:href="#DejaVuSans-2e" x="63.623047"/>
       <use xlink:href="#DejaVuSans-30" x="95.410156"/>
      </g>
     </g>
    </g>
    <g id="text_14">
     <!-- Ï -->
     <g transform="translate(41.994531 298.815547) rotate(-90) scale(0.25 -0.25)">
      <defs>
       <path id="DejaVuSans-3c1" d="M 863 2875 
Q 1053 3194 1525 3475 
Q 1709 3584 2278 3584 
Q 2916 3584 3314 3078 
Q 3713 2572 3713 1747 
Q 3713 922 3314 415 
Q 2916 -91 2278 -91 
Q 1894 -91 1617 61 
Q 1341 213 1159 525 
L 1159 -1331 
L 581 -1331 
L 581 1716 
Q 581 2438 863 2875 
z
M 3116 1747 
Q 3116 2381 2855 2742 
Q 2594 3103 2138 3103 
Q 1681 3103 1420 2742 
Q 1159 2381 1159 1747 
Q 1159 1113 1420 752 
Q 1681 391 2138 391 
Q 2594 391 2855 752 
Q 3116 1113 3116 1747 
z
" transform="scale(0.015625)"/>
      </defs>
      <use xlink:href="#DejaVuSans-3c1"/>
     </g>
    </g>
   </g>
   <g id="line2d_13">
    <path d="M 115.363636 89.28 
L 125.716141 345.661117 
L 136.068646 374.216072 
L 146.42115 376.318847 
L 156.773655 377.013045 
L 167.12616 376.294631 
L 177.478664 377.037261 
L 187.831169 375.37845 
L 198.183673 377.190631 
L 208.536178 375.858739 
L 218.888683 375.334054 
L 229.241187 375.580252 
L 239.593692 376.161441 
L 249.946197 375.975784 
L 260.298701 375.95964 
L 270.651206 377.057441 
L 281.003711 376.068613 
L 291.356215 376.887928 
L 301.70872 376.008072 
L 312.061224 376.85564 
L 322.413729 374.817441 
L 332.766234 375.475315 
L 343.118738 377.388396 
L 353.471243 375.269477 
L 363.823748 374.789189 
L 374.176252 376.322883 
L 384.528757 376.766847 
L 394.881262 375.588324 
L 405.233766 376.839495 
L 415.586271 376.278486 
L 425.938776 375.769946 
L 436.29128 376.492396 
L 446.643785 375.891027 
L 456.996289 376.068613 
L 467.348794 375.967712 
L 477.701299 376.508541 
L 488.053803 376.883892 
L 498.406308 376.496432 
L 508.758813 375.451099 
L 519.111317 376.278486 
L 529.463822 374.978883 
L 539.816327 376.62155 
L 550.168831 376.625586 
L 560.521336 376.419748 
L 570.87384 377.009009 
L 581.226345 376.516613 
L 591.57885 376.379387 
L 601.931354 375.782054 
L 612.283859 375.955604 
L 622.636364 375.78609 
" clip-path="url(#pbefe8de7ed)" style="fill: none; stroke: #99ccff; stroke-linecap: square"/>
    <defs>
     <path id="m162f3f2822" d="M -4 4 
L 4 4 
L 4 -4 
L -4 -4 
z
" style="stroke: #99ccff; stroke-linejoin: miter"/>
    </defs>
    <g clip-path="url(#pbefe8de7ed)">
     <use xlink:href="#m162f3f2822" x="115.363636" y="89.28" style="fill: #99ccff; stroke: #99ccff; stroke-linejoin: miter"/>
     <use xlink:href="#m162f3f2822" x="125.716141" y="345.661117" style="fill: #99ccff; stroke: #99ccff; stroke-linejoin: miter"/>
     <use xlink:href="#m162f3f2822" x="136.068646" y="374.216072" style="fill: #99ccff; stroke: #99ccff; stroke-linejoin: miter"/>
     <use xlink:href="#m162f3f2822" x="146.42115" y="376.318847" style="fill: #99ccff; stroke: #99ccff; stroke-linejoin: miter"/>
     <use xlink:href="#m162f3f2822" x="156.773655" y="377.013045" style="fill: #99ccff; stroke: #99ccff; stroke-linejoin: miter"/>
     <use xlink:href="#m162f3f2822" x="167.12616" y="376.294631" style="fill: #99ccff; stroke: #99ccff; stroke-linejoin: miter"/>
     <use xlink:href="#m162f3f2822" x="177.478664" y="377.037261" style="fill: #99ccff; stroke: #99ccff; stroke-linejoin: miter"/>
     <use xlink:href="#m162f3f2822" x="187.831169" y="375.37845" style="fill: #99ccff; stroke: #99ccff; stroke-linejoin: miter"/>
     <use xlink:href="#m162f3f2822" x="198.183673" y="377.190631" style="fill: #99ccff; stroke: #99ccff; stroke-linejoin: miter"/>
     <use xlink:href="#m162f3f2822" x="208.536178" y="375.858739" style="fill: #99ccff; stroke: #99ccff; stroke-linejoin: miter"/>
     <use xlink:href="#m162f3f2822" x="218.888683" y="375.334054" style="fill: #99ccff; stroke: #99ccff; stroke-linejoin: miter"/>
     <use xlink:href="#m162f3f2822" x="229.241187" y="375.580252" style="fill: #99ccff; stroke: #99ccff; stroke-linejoin: miter"/>
     <use xlink:href="#m162f3f2822" x="239.593692" y="376.161441" style="fill: #99ccff; stroke: #99ccff; stroke-linejoin: miter"/>
     <use xlink:href="#m162f3f2822" x="249.946197" y="375.975784" style="fill: #99ccff; stroke: #99ccff; stroke-linejoin: miter"/>
     <use xlink:href="#m162f3f2822" x="260.298701" y="375.95964" style="fill: #99ccff; stroke: #99ccff; stroke-linejoin: miter"/>
     <use xlink:href="#m162f3f2822" x="270.651206" y="377.057441" style="fill: #99ccff; stroke: #99ccff; stroke-linejoin: miter"/>
     <use xlink:href="#m162f3f2822" x="281.003711" y="376.068613" style="fill: #99ccff; stroke: #99ccff; stroke-linejoin: miter"/>
     <use xlink:href="#m162f3f2822" x="291.356215" y="376.887928" style="fill: #99ccff; stroke: #99ccff; stroke-linejoin: miter"/>
     <use xlink:href="#m162f3f2822" x="301.70872" y="376.008072" style="fill: #99ccff; stroke: #99ccff; stroke-linejoin: miter"/>
     <use xlink:href="#m162f3f2822" x="312.061224" y="376.85564" style="fill: #99ccff; stroke: #99ccff; stroke-linejoin: miter"/>
     <use xlink:href="#m162f3f2822" x="322.413729" y="374.817441" style="fill: #99ccff; stroke: #99ccff; stroke-linejoin: miter"/>
     <use xlink:href="#m162f3f2822" x="332.766234" y="375.475315" style="fill: #99ccff; stroke: #99ccff; stroke-linejoin: miter"/>
     <use xlink:href="#m162f3f2822" x="343.118738" y="377.388396" style="fill: #99ccff; stroke: #99ccff; stroke-linejoin: miter"/>
     <use xlink:href="#m162f3f2822" x="353.471243" y="375.269477" style="fill: #99ccff; stroke: #99ccff; stroke-linejoin: miter"/>
     <use xlink:href="#m162f3f2822" x="363.823748" y="374.789189" style="fill: #99ccff; stroke: #99ccff; stroke-linejoin: miter"/>
     <use xlink:href="#m162f3f2822" x="374.176252" y="376.322883" style="fill: #99ccff; stroke: #99ccff; stroke-linejoin: miter"/>
     <use xlink:href="#m162f3f2822" x="384.528757" y="376.766847" style="fill: #99ccff; stroke: #99ccff; stroke-linejoin: miter"/>
     <use xlink:href="#m162f3f2822" x="394.881262" y="375.588324" style="fill: #99ccff; stroke: #99ccff; stroke-linejoin: miter"/>
     <use xlink:href="#m162f3f2822" x="405.233766" y="376.839495" style="fill: #99ccff; stroke: #99ccff; stroke-linejoin: miter"/>
     <use xlink:href="#m162f3f2822" x="415.586271" y="376.278486" style="fill: #99ccff; stroke: #99ccff; stroke-linejoin: miter"/>
     <use xlink:href="#m162f3f2822" x="425.938776" y="375.769946" style="fill: #99ccff; stroke: #99ccff; stroke-linejoin: miter"/>
     <use xlink:href="#m162f3f2822" x="436.29128" y="376.492396" style="fill: #99ccff; stroke: #99ccff; stroke-linejoin: miter"/>
     <use xlink:href="#m162f3f2822" x="446.643785" y="375.891027" style="fill: #99ccff; stroke: #99ccff; stroke-linejoin: miter"/>
     <use xlink:href="#m162f3f2822" x="456.996289" y="376.068613" style="fill: #99ccff; stroke: #99ccff; stroke-linejoin: miter"/>
     <use xlink:href="#m162f3f2822" x="467.348794" y="375.967712" style="fill: #99ccff; stroke: #99ccff; stroke-linejoin: miter"/>
     <use xlink:href="#m162f3f2822" x="477.701299" y="376.508541" style="fill: #99ccff; stroke: #99ccff; stroke-linejoin: miter"/>
     <use xlink:href="#m162f3f2822" x="488.053803" y="376.883892" style="fill: #99ccff; stroke: #99ccff; stroke-linejoin: miter"/>
     <use xlink:href="#m162f3f2822" x="498.406308" y="376.496432" style="fill: #99ccff; stroke: #99ccff; stroke-linejoin: miter"/>
     <use xlink:href="#m162f3f2822" x="508.758813" y="375.451099" style="fill: #99ccff; stroke: #99ccff; stroke-linejoin: miter"/>
     <use xlink:href="#m162f3f2822" x="519.111317" y="376.278486" style="fill: #99ccff; stroke: #99ccff; stroke-linejoin: miter"/>
     <use xlink:href="#m162f3f2822" x="529.463822" y="374.978883" style="fill: #99ccff; stroke: #99ccff; stroke-linejoin: miter"/>
     <use xlink:href="#m162f3f2822" x="539.816327" y="376.62155" style="fill: #99ccff; stroke: #99ccff; stroke-linejoin: miter"/>
     <use xlink:href="#m162f3f2822" x="550.168831" y="376.625586" style="fill: #99ccff; stroke: #99ccff; stroke-linejoin: miter"/>
     <use xlink:href="#m162f3f2822" x="560.521336" y="376.419748" style="fill: #99ccff; stroke: #99ccff; stroke-linejoin: miter"/>
     <use xlink:href="#m162f3f2822" x="570.87384" y="377.009009" style="fill: #99ccff; stroke: #99ccff; stroke-linejoin: miter"/>
     <use xlink:href="#m162f3f2822" x="581.226345" y="376.516613" style="fill: #99ccff; stroke: #99ccff; stroke-linejoin: miter"/>
     <use xlink:href="#m162f3f2822" x="591.57885" y="376.379387" style="fill: #99ccff; stroke: #99ccff; stroke-linejoin: miter"/>
     <use xlink:href="#m162f3f2822" x="601.931354" y="375.782054" style="fill: #99ccff; stroke: #99ccff; stroke-linejoin: miter"/>
     <use xlink:href="#m162f3f2822" x="612.283859" y="375.955604" style="fill: #99ccff; stroke: #99ccff; stroke-linejoin: miter"/>
     <use xlink:href="#m162f3f2822" x="622.636364" y="375.78609" style="fill: #99ccff; stroke: #99ccff; stroke-linejoin: miter"/>
    </g>
   </g>
   <g id="line2d_14">
    <path d="M 115.363636 492.48 
L 125.716141 236.098883 
L 136.068646 207.543928 
L 146.42115 205.441153 
L 156.773655 204.746955 
L 167.12616 205.465369 
L 177.478664 204.722739 
L 187.831169 206.38155 
L 198.183673 204.569369 
L 208.536178 205.901261 
L 218.888683 206.425946 
L 229.241187 206.179748 
L 239.593692 205.598559 
L 249.946197 205.784216 
L 260.298701 205.80036 
L 270.651206 204.702559 
L 281.003711 205.691387 
L 291.356215 204.872072 
L 301.70872 205.751928 
L 312.061224 204.90436 
L 322.413729 206.942559 
L 332.766234 206.284685 
L 343.118738 204.371604 
L 353.471243 206.490523 
L 363.823748 206.970811 
L 374.176252 205.437117 
L 384.528757 204.993153 
L 394.881262 206.171676 
L 405.233766 204.920505 
L 415.586271 205.481514 
L 425.938776 205.990054 
L 436.29128 205.267604 
L 446.643785 205.868973 
L 456.996289 205.691387 
L 467.348794 205.792288 
L 477.701299 205.251459 
L 488.053803 204.876108 
L 498.406308 205.263568 
L 508.758813 206.308901 
L 519.111317 205.481514 
L 529.463822 206.781117 
L 539.816327 205.13845 
L 550.168831 205.134414 
L 560.521336 205.340252 
L 570.87384 204.750991 
L 581.226345 205.243387 
L 591.57885 205.380613 
L 601.931354 205.977946 
L 612.283859 205.804396 
L 622.636364 205.97391 
" clip-path="url(#pbefe8de7ed)" style="fill: none; stroke: #66cc00; stroke-linecap: square"/>
    <defs>
     <path id="m974c5bdda1" d="M 0 -4 
L -3.804226 -1.236068 
L -2.351141 3.236068 
L 2.351141 3.236068 
L 3.804226 -1.236068 
z
" style="stroke: #66cc00; stroke-linejoin: miter"/>
    </defs>
    <g clip-path="url(#pbefe8de7ed)">
     <use xlink:href="#m974c5bdda1" x="115.363636" y="492.48" style="fill: #66cc00; stroke: #66cc00; stroke-linejoin: miter"/>
     <use xlink:href="#m974c5bdda1" x="125.716141" y="236.098883" style="fill: #66cc00; stroke: #66cc00; stroke-linejoin: miter"/>
     <use xlink:href="#m974c5bdda1" x="136.068646" y="207.543928" style="fill: #66cc00; stroke: #66cc00; stroke-linejoin: miter"/>
     <use xlink:href="#m974c5bdda1" x="146.42115" y="205.441153" style="fill: #66cc00; stroke: #66cc00; stroke-linejoin: miter"/>
     <use xlink:href="#m974c5bdda1" x="156.773655" y="204.746955" style="fill: #66cc00; stroke: #66cc00; stroke-linejoin: miter"/>
     <use xlink:href="#m974c5bdda1" x="167.12616" y="205.465369" style="fill: #66cc00; stroke: #66cc00; stroke-linejoin: miter"/>
     <use xlink:href="#m974c5bdda1" x="177.478664" y="204.722739" style="fill: #66cc00; stroke: #66cc00; stroke-linejoin: miter"/>
     <use xlink:href="#m974c5bdda1" x="187.831169" y="206.38155" style="fill: #66cc00; stroke: #66cc00; stroke-linejoin: miter"/>
     <use xlink:href="#m974c5bdda1" x="198.183673" y="204.569369" style="fill: #66cc00; stroke: #66cc00; stroke-linejoin: miter"/>
     <use xlink:href="#m974c5bdda1" x="208.536178" y="205.901261" style="fill: #66cc00; stroke: #66cc00; stroke-linejoin: miter"/>
     <use xlink:href="#m974c5bdda1" x="218.888683" y="206.425946" style="fill: #66cc00; stroke: #66cc00; stroke-linejoin: miter"/>
     <use xlink:href="#m974c5bdda1" x="229.241187" y="206.179748" style="fill: #66cc00; stroke: #66cc00; stroke-linejoin: miter"/>
     <use xlink:href="#m974c5bdda1" x="239.593692" y="205.598559" style="fill: #66cc00; stroke: #66cc00; stroke-linejoin: miter"/>
     <use xlink:href="#m974c5bdda1" x="249.946197" y="205.784216" style="fill: #66cc00; stroke: #66cc00; stroke-linejoin: miter"/>
     <use xlink:href="#m974c5bdda1" x="260.298701" y="205.80036" style="fill: #66cc00; stroke: #66cc00; stroke-linejoin: miter"/>
     <use xlink:href="#m974c5bdda1" x="270.651206" y="204.702559" style="fill: #66cc00; stroke: #66cc00; stroke-linejoin: miter"/>
     <use xlink:href="#m974c5bdda1" x="281.003711" y="205.691387" style="fill: #66cc00; stroke: #66cc00; stroke-linejoin: miter"/>
     <use xlink:href="#m974c5bdda1" x="291.356215" y="204.872072" style="fill: #66cc00; stroke: #66cc00; stroke-linejoin: miter"/>
     <use xlink:href="#m974c5bdda1" x="301.70872" y="205.751928" style="fill: #66cc00; stroke: #66cc00; stroke-linejoin: miter"/>
     <use xlink:href="#m974c5bdda1" x="312.061224" y="204.90436" style="fill: #66cc00; stroke: #66cc00; stroke-linejoin: miter"/>
     <use xlink:href="#m974c5bdda1" x="322.413729" y="206.942559" style="fill: #66cc00; stroke: #66cc00; stroke-linejoin: miter"/>
     <use xlink:href="#m974c5bdda1" x="332.766234" y="206.284685" style="fill: #66cc00; stroke: #66cc00; stroke-linejoin: miter"/>
     <use xlink:href="#m974c5bdda1" x="343.118738" y="204.371604" style="fill: #66cc00; stroke: #66cc00; stroke-linejoin: miter"/>
     <use xlink:href="#m974c5bdda1" x="353.471243" y="206.490523" style="fill: #66cc00; stroke: #66cc00; stroke-linejoin: miter"/>
     <use xlink:href="#m974c5bdda1" x="363.823748" y="206.970811" style="fill: #66cc00; stroke: #66cc00; stroke-linejoin: miter"/>
     <use xlink:href="#m974c5bdda1" x="374.176252" y="205.437117" style="fill: #66cc00; stroke: #66cc00; stroke-linejoin: miter"/>
     <use xlink:href="#m974c5bdda1" x="384.528757" y="204.993153" style="fill: #66cc00; stroke: #66cc00; stroke-linejoin: miter"/>
     <use xlink:href="#m974c5bdda1" x="394.881262" y="206.171676" style="fill: #66cc00; stroke: #66cc00; stroke-linejoin: miter"/>
     <use xlink:href="#m974c5bdda1" x="405.233766" y="204.920505" style="fill: #66cc00; stroke: #66cc00; stroke-linejoin: miter"/>
     <use xlink:href="#m974c5bdda1" x="415.586271" y="205.481514" style="fill: #66cc00; stroke: #66cc00; stroke-linejoin: miter"/>
     <use xlink:href="#m974c5bdda1" x="425.938776" y="205.990054" style="fill: #66cc00; stroke: #66cc00; stroke-linejoin: miter"/>
     <use xlink:href="#m974c5bdda1" x="436.29128" y="205.267604" style="fill: #66cc00; stroke: #66cc00; stroke-linejoin: miter"/>
     <use xlink:href="#m974c5bdda1" x="446.643785" y="205.868973" style="fill: #66cc00; stroke: #66cc00; stroke-linejoin: miter"/>
     <use xlink:href="#m974c5bdda1" x="456.996289" y="205.691387" style="fill: #66cc00; stroke: #66cc00; stroke-linejoin: miter"/>
     <use xlink:href="#m974c5bdda1" x="467.348794" y="205.792288" style="fill: #66cc00; stroke: #66cc00; stroke-linejoin: miter"/>
     <use xlink:href="#m974c5bdda1" x="477.701299" y="205.251459" style="fill: #66cc00; stroke: #66cc00; stroke-linejoin: miter"/>
     <use xlink:href="#m974c5bdda1" x="488.053803" y="204.876108" style="fill: #66cc00; stroke: #66cc00; stroke-linejoin: miter"/>
     <use xlink:href="#m974c5bdda1" x="498.406308" y="205.263568" style="fill: #66cc00; stroke: #66cc00; stroke-linejoin: miter"/>
     <use xlink:href="#m974c5bdda1" x="508.758813" y="206.308901" style="fill: #66cc00; stroke: #66cc00; stroke-linejoin: miter"/>
     <use xlink:href="#m974c5bdda1" x="519.111317" y="205.481514" style="fill: #66cc00; stroke: #66cc00; stroke-linejoin: miter"/>
     <use xlink:href="#m974c5bdda1" x="529.463822" y="206.781117" style="fill: #66cc00; stroke: #66cc00; stroke-linejoin: miter"/>
     <use xlink:href="#m974c5bdda1" x="539.816327" y="205.13845" style="fill: #66cc00; stroke: #66cc00; stroke-linejoin: miter"/>
     <use xlink:href="#m974c5bdda1" x="550.168831" y="205.134414" style="fill: #66cc00; stroke: #66cc00; stroke-linejoin: miter"/>
     <use xlink:href="#m974c5bdda1" x="560.521336" y="205.340252" style="fill: #66cc00; stroke: #66cc00; stroke-linejoin: miter"/>
     <use xlink:href="#m974c5bdda1" x="570.87384" y="204.750991" style="fill: #66cc00; stroke: #66cc00; stroke-linejoin: miter"/>
     <use xlink:href="#m974c5bdda1" x="581.226345" y="205.243387" style="fill: #66cc00; stroke: #66cc00; stroke-linejoin: miter"/>
     <use xlink:href="#m974c5bdda1" x="591.57885" y="205.380613" style="fill: #66cc00; stroke: #66cc00; stroke-linejoin: miter"/>
     <use xlink:href="#m974c5bdda1" x="601.931354" y="205.977946" style="fill: #66cc00; stroke: #66cc00; stroke-linejoin: miter"/>
     <use xlink:href="#m974c5bdda1" x="612.283859" y="205.804396" style="fill: #66cc00; stroke: #66cc00; stroke-linejoin: miter"/>
     <use xlink:href="#m974c5bdda1" x="622.636364" y="205.97391" style="fill: #66cc00; stroke: #66cc00; stroke-linejoin: miter"/>
    </g>
   </g>
   <g id="patch_3">
    <path d="M 90 512.64 
L 90 69.12 
" style="fill: none; stroke: #000000; stroke-width: 1.5; stroke-linejoin: miter; stroke-linecap: square"/>
   </g>
   <g id="patch_4">
    <path d="M 648 512.64 
L 648 69.12 
" style="fill: none; stroke: #000000; stroke-width: 1.5; stroke-linejoin: miter; stroke-linecap: square"/>
   </g>
   <g id="patch_5">
    <path d="M 90 512.64 
L 648 512.64 
" style="fill: none; stroke: #000000; stroke-width: 1.5; stroke-linejoin: miter; stroke-linecap: square"/>
   </g>
   <g id="patch_6">
    <path d="M 90 69.12 
L 648 69.12 
" style="fill: none; stroke: #000000; stroke-width: 1.5; stroke-linejoin: miter; stroke-linecap: square"/>
   </g>
   <g id="legend_1">
    <g id="patch_7">
     <path d="M 557.303125 143.8325 
L 634 143.8325 
Q 638 143.8325 638 139.8325 
L 638 83.12 
Q 638 79.12 634 79.12 
L 557.303125 79.12 
Q 553.303125 79.12 553.303125 83.12 
L 553.303125 139.8325 
Q 553.303125 143.8325 557.303125 143.8325 
z
" style="fill: #ffffff; opacity: 0.8; stroke: #cccccc; stroke-linejoin: miter"/>
    </g>
    <g id="line2d_15">
     <path d="M 561.303125 95.316875 
L 581.303125 95.316875 
L 601.303125 95.316875 
" style="fill: none; stroke: #99ccff; stroke-linecap: square"/>
     <g>
      <use xlink:href="#m162f3f2822" x="581.303125" y="95.316875" style="fill: #99ccff; stroke: #99ccff; stroke-linejoin: miter"/>
     </g>
    </g>
    <g id="text_15">
     <!-- S -->
     <g transform="translate(617.303125 102.316875) scale(0.2 -0.2)">
      <defs>
       <path id="DejaVuSans-53" d="M 3425 4513 
L 3425 3897 
Q 3066 4069 2747 4153 
Q 2428 4238 2131 4238 
Q 1616 4238 1336 4038 
Q 1056 3838 1056 3469 
Q 1056 3159 1242 3001 
Q 1428 2844 1947 2747 
L 2328 2669 
Q 3034 2534 3370 2195 
Q 3706 1856 3706 1288 
Q 3706 609 3251 259 
Q 2797 -91 1919 -91 
Q 1588 -91 1214 -16 
Q 841 59 441 206 
L 441 856 
Q 825 641 1194 531 
Q 1563 422 1919 422 
Q 2459 422 2753 634 
Q 3047 847 3047 1241 
Q 3047 1584 2836 1778 
Q 2625 1972 2144 2069 
L 1759 2144 
Q 1053 2284 737 2584 
Q 422 2884 422 3419 
Q 422 4038 858 4394 
Q 1294 4750 2059 4750 
Q 2388 4750 2728 4690 
Q 3069 4631 3425 4513 
z
" transform="scale(0.015625)"/>
      </defs>
      <use xlink:href="#DejaVuSans-53"/>
     </g>
    </g>
    <g id="line2d_16">
     <path d="M 561.303125 124.673125 
L 581.303125 124.673125 
L 601.303125 124.673125 
" style="fill: none; stroke: #66cc00; stroke-linecap: square"/>
     <g>
      <use xlink:href="#m974c5bdda1" x="581.303125" y="124.673125" style="fill: #66cc00; stroke: #66cc00; stroke-linejoin: miter"/>
     </g>
    </g>
    <g id="text_16">
     <!-- I -->
     <g transform="translate(617.303125 131.673125) scale(0.2 -0.2)">
      <defs>
       <path id="DejaVuSans-49" d="M 628 4666 
L 1259 4666 
L 1259 0 
L 628 0 
L 628 4666 
z
" transform="scale(0.015625)"/>
      </defs>
      <use xlink:href="#DejaVuSans-49"/>
     </g>
    </g>
   </g>
  </g>
 </g>
 <defs>
  <clipPath id="pbefe8de7ed">
   <rect x="90" y="69.12" width="558" height="443.52"/>
  </clipPath>
 </defs>
</svg>
